# xmcd CD database file
#
# Track frame offsets:
#	150
#	15563
#	33493
#	48539
#	67702
#	86242
#	103004
#	123728
#	139240
#	163826
#	194475
#	221654
#	239441
#	254838
#	274267
#	296506
#	320294
#	338061
#
# Disc length: 4837 seconds
#
# Revision: 1
# Processed by: cddbd v1.5.2PL0 Copyright (c) Steve Scherf et al.
# Submitted via: CDex 1.51
#
DISCID=1c12e312
DTITLE=Joe Louis Walker - (2011) Favorites 1
DYEAR=2011
DGENRE=Blues
TTITLE0=Ten More Shows To Play
TTITLE1=Ridin' High
TTITLE2=On That Powerline
TTITLE3=Got To Find My Baby
TTITLE4=747
TTITLE5=Kenny's Barrelhouse
TTITLE6=Silvertone Blues
TTITLE7=Borrowed Time
TTITLE8=Slide Her Up And Down
TTITLE9=Hookers Blues
TTITLE10=Barefoot Rock
TTITLE11=Poor Man Plead
TTITLE12=Ready And Able
TTITLE13=Midnight Train
TTITLE14=Rollin' and Tumblin'
TTITLE15=I Got What You Need
TTITLE16=I'm Tide
TTITLE17=I've Been Down
EXTD=YEAR: 2011
EXTT0=
EXTT1=
EXTT2=
EXTT3=
EXTT4=
EXTT5=
EXTT6=
EXTT7=
EXTT8=
EXTT9=
EXTT10=
EXTT11=
EXTT12=
EXTT13=
EXTT14=
EXTT15=
EXTT16=
EXTT17=
PLAYORDER=
